<svg width="2000" height="1000" viewBox="0 0 2000 1000" fill="none" xmlns="http://www.w3.org/2000/svg">
<rect x="1300" y="620" width="200" height="150" stroke="black" stroke-width="5" stroke-linejoin="round"/>
<rect x="700" y="430" width="200" height="150" stroke="black" stroke-width="5" stroke-linejoin="round"/>
<rect x="1300" y="420" width="200" height="150" stroke="black" stroke-width="5" stroke-linejoin="round"/>
<rect x="700" y="230" width="200" height="150" stroke="black" stroke-width="5" stroke-linejoin="round"/>
<rect x="1035" y="279.757" width="65" height="100" stroke="black" stroke-width="5" stroke-linejoin="round"/>
<rect x="900" y="230" width="70" height="30" stroke="black" stroke-width="5" stroke-linejoin="round"/>
<path d="M500 379.757H430V529.757H500" stroke="black" stroke-width="5" stroke-linejoin="round"/>
<path d="M1500 570H1570V720H1500" stroke="black" stroke-width="5" stroke-linejoin="round"/>
<rect x="970" y="230" width="130" height="150" stroke="black" stroke-width="5" stroke-linejoin="round"/>
<rect x="1100" y="620" width="200" height="150" stroke="black" stroke-width="5" stroke-linejoin="round"/>
<rect x="500" y="430" width="200" height="150" stroke="black" stroke-width="5" stroke-linejoin="round"/>
<rect x="1100" y="420" width="200" height="150" stroke="black" stroke-width="5" stroke-linejoin="round"/>
<rect x="500" y="230" width="200" height="150" stroke="black" stroke-width="5" stroke-linejoin="round"/>
<path fill-rule="evenodd" clip-rule="evenodd" d="M989.06 516.066C973.376 502.906 961.402 488.519 954.679 475.98C951.314 469.704 949.328 464.008 948.776 459.238C948.225 454.474 949.121 450.875 951.199 448.398C954.783 444.127 962.372 442.782 973.446 445.454C983.865 447.969 996.491 453.867 1009.48 462.65C1009.2 464.224 1009.06 465.844 1009.06 467.499C1009.06 482.687 1021.37 494.999 1036.56 494.999C1039.36 494.999 1042.07 494.58 1044.61 493.8C1053.3 503.928 1059.46 513.844 1062.57 522.308C1065.85 531.237 1065.48 537.789 1062.28 541.602C1060.2 544.079 1056.81 545.586 1052.02 545.87C1047.23 546.155 1041.27 545.188 1034.51 542.964C1020.99 538.521 1004.74 529.227 989.06 516.066ZM1049.46 491.788C1057.86 501.791 1064.02 511.756 1067.26 520.585C1070.71 529.985 1071.1 538.868 1066.11 544.816C1062.86 548.685 1057.96 550.526 1052.32 550.862C1046.68 551.196 1040.07 550.055 1032.95 547.714C1018.69 543.027 1001.89 533.361 985.846 519.896C969.8 506.432 957.364 491.57 950.273 478.343C946.73 471.736 944.458 465.42 943.809 459.812C943.16 454.197 944.122 449.053 947.369 445.184C952.931 438.554 963.231 437.845 974.619 440.594C985.394 443.194 998.045 449.072 1010.9 457.582C1014.88 447.295 1024.87 439.999 1036.56 439.999C1051.75 439.999 1064.06 452.311 1064.06 467.499C1064.06 478.022 1058.15 487.165 1049.46 491.788ZM1014.06 467.499C1014.06 455.073 1024.13 444.999 1036.56 444.999C1048.98 444.999 1059.06 455.073 1059.06 467.499C1059.06 479.925 1048.98 489.999 1036.56 489.999C1024.13 489.999 1014.06 479.925 1014.06 467.499Z" fill="black"/>
<path d="M1100 620C1000 620 1000 560 900 560" stroke="black" stroke-width="5"/>
<path d="M1100 380L1100 420" stroke="black" stroke-width="5"/>
</svg>
