<svg width="1500" height="1000" viewBox="0 0 1500 1000" fill="none" xmlns="http://www.w3.org/2000/svg">
<rect x="1050" y="620" width="200" height="150" stroke="black" stroke-width="5" stroke-linecap="round" stroke-linejoin="round"/>
<rect x="450" y="430" width="200" height="150" stroke="black" stroke-width="5" stroke-linecap="round" stroke-linejoin="round"/>
<rect x="1050" y="420" width="200" height="150" stroke="black" stroke-width="5" stroke-linecap="round" stroke-linejoin="round"/>
<rect x="450" y="230" width="200" height="150" stroke="black" stroke-width="5" stroke-linecap="round" stroke-linejoin="round"/>
<rect x="785" y="279.757" width="65" height="100" stroke="black" stroke-width="5" stroke-linecap="round" stroke-linejoin="round"/>
<rect x="650" y="230" width="70" height="30" stroke="black" stroke-width="5" stroke-linecap="round" stroke-linejoin="round"/>
<path d="M250 380H180V530H250" stroke="black" stroke-width="5" stroke-linecap="round" stroke-linejoin="round"/>
<path d="M1250 570H1320V720H1250" stroke="black" stroke-width="5" stroke-linecap="round" stroke-linejoin="round"/>
<rect x="720" y="230" width="130" height="150" stroke="black" stroke-width="5" stroke-linecap="round" stroke-linejoin="round"/>
<rect x="850" y="620" width="200" height="150" stroke="black" stroke-width="5" stroke-linecap="round" stroke-linejoin="round"/>
<rect x="250" y="430" width="200" height="150" stroke="black" stroke-width="5" stroke-linecap="round" stroke-linejoin="round"/>
<rect x="850" y="420" width="200" height="150" stroke="black" stroke-width="5" stroke-linecap="round" stroke-linejoin="round"/>
<rect x="250" y="230" width="200" height="150" stroke="black" stroke-width="5" stroke-linecap="round" stroke-linejoin="round"/>
<path fill-rule="evenodd" clip-rule="evenodd" d="M739.06 516.066C723.376 502.906 711.402 488.519 704.679 475.98C701.314 469.704 699.328 464.008 698.776 459.238C698.225 454.474 699.121 450.875 701.199 448.398C704.783 444.127 712.373 442.782 723.446 445.454C733.865 447.969 746.491 453.867 759.484 462.65C759.204 464.224 759.058 465.844 759.058 467.499C759.058 482.687 771.37 494.999 786.558 494.999C789.361 494.999 792.067 494.579 794.615 493.8C803.296 503.928 809.462 513.844 812.569 522.308C815.846 531.237 815.475 537.788 812.275 541.602C810.197 544.079 806.808 545.586 802.021 545.87C797.227 546.155 791.273 545.188 784.508 542.964C770.992 538.521 754.745 529.227 739.06 516.066ZM799.465 491.788C807.857 501.791 814.022 511.756 817.262 520.585C820.713 529.985 821.097 538.868 816.106 544.816C812.859 548.685 807.96 550.526 802.318 550.862C796.683 551.196 790.068 550.055 782.946 547.714C768.689 543.027 751.893 533.361 735.847 519.896C719.8 506.432 707.364 491.57 700.273 478.343C696.73 471.736 694.458 465.42 693.809 459.812C693.16 454.197 694.122 449.053 697.369 445.184C702.932 438.554 713.231 437.845 724.619 440.594C735.394 443.194 748.045 449.072 760.901 457.582C764.88 447.295 774.867 439.999 786.558 439.999C801.746 439.999 814.058 452.311 814.058 467.499C814.058 478.022 808.147 487.165 799.465 491.788ZM764.058 467.499C764.058 455.073 774.132 444.999 786.558 444.999C798.984 444.999 809.058 455.073 809.058 467.499C809.058 479.925 798.984 489.999 786.558 489.999C774.132 489.999 764.058 479.925 764.058 467.499Z" fill="black"/>
<path d="M850 620C750 620 750 560 650 560" stroke="black" stroke-width="5" stroke-linecap="round" stroke-linejoin="round"/>
<path d="M850 380L850 420" stroke="black" stroke-width="5" stroke-linecap="round" stroke-linejoin="round"/>
</svg>
