<svg width="2200" height="1500" viewBox="0 0 2200 1500" fill="none" xmlns="http://www.w3.org/2000/svg">
<path d="M1685 1085H1650V1205" stroke="black" stroke-width="5" stroke-linecap="round" stroke-linejoin="round"/>
<path d="M1685 1040H1640V920" stroke="black" stroke-width="5" stroke-linecap="round" stroke-linejoin="round"/>
<rect x="1090" y="1085" width="50" height="120" stroke="black" stroke-width="5" stroke-linecap="round" stroke-linejoin="round"/>
<rect x="890" y="1085" width="50" height="60" stroke="black" stroke-width="5" stroke-linecap="round" stroke-linejoin="round"/>
<rect x="990" y="1085" width="50" height="120" stroke="black" stroke-width="5" stroke-linecap="round" stroke-linejoin="round"/>
<rect x="1190" y="1085" width="50" height="120" stroke="black" stroke-width="5" stroke-linecap="round" stroke-linejoin="round"/>
<rect x="790" y="1085" width="150" height="120" stroke="black" stroke-width="5" stroke-linecap="round" stroke-linejoin="round"/>
<rect x="745" y="315" width="60" height="60" stroke="black" stroke-width="5" stroke-linecap="round" stroke-linejoin="round"/>
<rect x="785" y="275" width="20" height="40" stroke="black" stroke-width="5" stroke-linecap="round" stroke-linejoin="round"/>
<rect x="570" y="275" width="20" height="40" stroke="black" stroke-width="5" stroke-linecap="round" stroke-linejoin="round"/>
<rect x="590" y="275" width="40" height="40" stroke="black" stroke-width="5" stroke-linecap="round" stroke-linejoin="round"/>
<rect x="805" y="275" width="110" height="100" stroke="black" stroke-width="5" stroke-linecap="round" stroke-linejoin="round"/>
<rect x="570" y="275" width="120" height="100" stroke="black" stroke-width="5" stroke-linecap="round" stroke-linejoin="round"/>
<rect x="1135" y="275" width="55" height="100" stroke="black" stroke-width="5" stroke-linecap="round" stroke-linejoin="round"/>
<rect x="1300" y="275" width="55" height="100" stroke="black" stroke-width="5" stroke-linecap="round" stroke-linejoin="round"/>
<rect x="1355" y="275" width="55" height="100" stroke="black" stroke-width="5" stroke-linecap="round" stroke-linejoin="round"/>
<rect x="1410" y="275" width="55" height="100" stroke="black" stroke-width="5" stroke-linecap="round" stroke-linejoin="round"/>
<rect x="915" y="275" width="220" height="100" stroke="black" stroke-width="5" stroke-linecap="round" stroke-linejoin="round"/>
<rect x="1190" y="275" width="110" height="100" stroke="black" stroke-width="5" stroke-linecap="round" stroke-linejoin="round"/>
<rect x="1190" y="100" width="275" height="130" stroke="black" stroke-width="5" stroke-linecap="round" stroke-linejoin="round"/>
<rect x="970" y="100" width="220" height="130" stroke="black" stroke-width="5" stroke-linecap="round" stroke-linejoin="round"/>
<rect x="915" y="100" width="55" height="130" stroke="black" stroke-width="5" stroke-linecap="round" stroke-linejoin="round"/>
<rect x="800" y="100" width="115" height="130" stroke="black" stroke-width="5" stroke-linecap="round" stroke-linejoin="round"/>
<rect x="745" y="100" width="55" height="130" stroke="black" stroke-width="5" stroke-linecap="round" stroke-linejoin="round"/>
<rect x="515" y="100" width="55" height="95" stroke="black" stroke-width="5" stroke-linecap="round" stroke-linejoin="round"/>
<rect x="170" y="100" width="400" height="130" stroke="black" stroke-width="5" stroke-linecap="round" stroke-linejoin="round"/>
<path d="M170 230H515V275H570V375H170V230Z" stroke="black" stroke-width="5" stroke-linecap="round" stroke-linejoin="round"/>
<path d="M570 100L690 100" stroke="black" stroke-width="5" stroke-linecap="round" stroke-linejoin="round"/>
<rect x="1040" y="1085" width="50" height="120" stroke="black" stroke-width="5" stroke-linecap="round" stroke-linejoin="round"/>
<rect x="1465" y="920" width="75" height="120" stroke="black" stroke-width="5" stroke-linecap="round" stroke-linejoin="round"/>
<rect x="1685" y="920" width="60" height="120" stroke="black" stroke-width="5" stroke-linecap="round" stroke-linejoin="round"/>
<rect x="1745" y="920" width="200" height="120" stroke="black" stroke-width="5" stroke-linecap="round" stroke-linejoin="round"/>
<rect x="1815" y="1085" width="130" height="120" stroke="black" stroke-width="5" stroke-linecap="round" stroke-linejoin="round"/>
<rect x="1685" y="1085" width="130" height="120" stroke="black" stroke-width="5" stroke-linecap="round" stroke-linejoin="round"/>
<rect x="790" y="950" width="150" height="90" stroke="black" stroke-width="5" stroke-linecap="round" stroke-linejoin="round"/>
<rect x="530" y="740" width="160" height="60" stroke="black" stroke-width="5" stroke-linecap="round" stroke-linejoin="round"/>
<rect x="745" y="575" width="160" height="225" stroke="black" stroke-width="5" stroke-linecap="round" stroke-linejoin="round"/>
<rect x="530" y="575" width="160" height="165" stroke="black" stroke-width="5" stroke-linecap="round" stroke-linejoin="round"/>
<rect x="610" y="950" width="80" height="90" stroke="black" stroke-width="5" stroke-linecap="round" stroke-linejoin="round"/>
<path d="M480 1355H590V1205H670V1355V1410H480V1355Z" stroke="black" stroke-width="5" stroke-linecap="round" stroke-linejoin="round"/>
<rect x="480" y="1205" width="75" height="50" stroke="black" stroke-width="5" stroke-linecap="round" stroke-linejoin="round"/>
<rect x="480" y="1255" width="75" height="50" stroke="black" stroke-width="5" stroke-linecap="round" stroke-linejoin="round"/>
<rect x="480" y="1305" width="75" height="50" stroke="black" stroke-width="5" stroke-linecap="round" stroke-linejoin="round"/>
<rect x="295" y="950" width="250" height="175" stroke="black" stroke-width="5" stroke-linecap="round" stroke-linejoin="round"/>
<rect x="480" y="1125" width="65" height="80" stroke="black" stroke-width="5" stroke-linecap="round" stroke-linejoin="round"/>
<rect x="610" y="1085" width="80" height="35" stroke="black" stroke-width="5" stroke-linecap="round" stroke-linejoin="round"/>
<rect x="610" y="1120" width="80" height="35" stroke="black" stroke-width="5" stroke-linecap="round" stroke-linejoin="round"/>
<path d="M690 1155V1205H670" stroke="black" stroke-width="5" stroke-linecap="round" stroke-linejoin="round"/>
<path d="M745 800V840" stroke="black" stroke-width="5" stroke-linecap="round" stroke-linejoin="round"/>
<path d="M745 275L745 325" stroke="black" stroke-width="5" stroke-linecap="round" stroke-linejoin="round"/>
<path d="M690 100L690 230" stroke="black" stroke-width="5" stroke-linecap="round" stroke-linejoin="round"/>
<path d="M790 800V950" stroke="black" stroke-width="5" stroke-linecap="round" stroke-linejoin="round"/>
<path d="M690 375V575" stroke="black" stroke-width="5" stroke-linecap="round" stroke-linejoin="round"/>
<path d="M745 375V575" stroke="black" stroke-width="5" stroke-linecap="round" stroke-linejoin="round"/>
<path d="M675 800V950" stroke="black" stroke-width="5" stroke-linecap="round" stroke-linejoin="round"/>
<rect x="545" y="950" width="65" height="90" stroke="black" stroke-width="5" stroke-linecap="round" stroke-linejoin="round"/>
<rect x="940" y="950" width="75" height="90" stroke="black" stroke-width="5" stroke-linecap="round" stroke-linejoin="round"/>
<rect x="1015" y="950" width="75" height="90" stroke="black" stroke-width="5" stroke-linecap="round" stroke-linejoin="round"/>
<rect x="1090" y="920" width="150" height="120" stroke="black" stroke-width="5" stroke-linecap="round" stroke-linejoin="round"/>
<path d="M1240 920H1390V1040H1290V965H1240V920Z" stroke="black" stroke-width="5" stroke-linecap="round" stroke-linejoin="round"/>
<rect x="1240" y="965" width="50" height="50" stroke="black" stroke-width="5" stroke-linecap="round" stroke-linejoin="round"/>
<rect x="1240" y="1085" width="150" height="120" stroke="black" stroke-width="5" stroke-linecap="round" stroke-linejoin="round"/>
<path d="M1505 1085V1150M1540 1085V1205H1455" stroke="black" stroke-width="5" stroke-linecap="round" stroke-linejoin="round"/>
<rect x="940" y="1085" width="50" height="120" stroke="black" stroke-width="5" stroke-linecap="round" stroke-linejoin="round"/>
<rect x="1140" y="1085" width="50" height="120" stroke="black" stroke-width="5" stroke-linecap="round" stroke-linejoin="round"/>
<path d="M1540 1085H1575V1205" stroke="black" stroke-width="5" stroke-linecap="round" stroke-linejoin="round"/>
<path d="M1540 1040H1585V920" stroke="black" stroke-width="5" stroke-linecap="round" stroke-linejoin="round"/>
<path d="M1390 920H1465" stroke="black" stroke-width="5" stroke-linecap="round" stroke-linejoin="round"/>
<path d="M690 1085H790" stroke="black" stroke-width="5" stroke-linecap="round" stroke-linejoin="round"/>
<path d="M1945 1037.5C1943.62 1037.5 1942.5 1038.62 1942.5 1040C1942.5 1041.38 1943.62 1042.5 1945 1042.5V1037.5ZM1995 1042.5C1996.38 1042.5 1997.5 1041.38 1997.5 1040C1997.5 1038.62 1996.38 1037.5 1995 1037.5V1042.5ZM1945 1082.5C1943.62 1082.5 1942.5 1083.62 1942.5 1085C1942.5 1086.38 1943.62 1087.5 1945 1087.5V1082.5ZM1995 1087.5C1996.38 1087.5 1997.5 1086.38 1997.5 1085C1997.5 1083.62 1996.38 1082.5 1995 1082.5V1087.5ZM1945 1042.5H1995V1037.5H1945V1042.5ZM1945 1087.5H1995V1082.5H1945V1087.5Z" fill="black"/>
<path d="M1390 1085H1505" stroke="black" stroke-width="5" stroke-linecap="round" stroke-linejoin="round"/>
<path d="M1465 227.5C1463.62 227.5 1462.5 228.619 1462.5 230C1462.5 231.381 1463.62 232.5 1465 232.5V227.5ZM1520 232.5C1521.38 232.5 1522.5 231.381 1522.5 230C1522.5 228.619 1521.38 227.5 1520 227.5V232.5ZM1465 272.5C1463.62 272.5 1462.5 273.619 1462.5 275C1462.5 276.381 1463.62 277.5 1465 277.5V272.5ZM1520 277.5C1521.38 277.5 1522.5 276.381 1522.5 275C1522.5 273.619 1521.38 272.5 1520 272.5V277.5ZM1465 232.5H1520V227.5H1465V232.5ZM1465 277.5H1520V272.5H1465V277.5Z" fill="black"/>
</svg>
