<svg width="2200" height="1500" viewBox="0 0 2200 1500" fill="none" xmlns="http://www.w3.org/2000/svg">
<rect x="1490" y="1085" width="50" height="120" stroke="black" stroke-width="5" stroke-linecap="round" stroke-linejoin="round"/>
<rect x="1090" y="1085" width="50" height="120" stroke="black" stroke-width="5" stroke-linecap="round" stroke-linejoin="round"/>
<rect x="1290" y="1085" width="50" height="120" stroke="black" stroke-width="5" stroke-linecap="round" stroke-linejoin="round"/>
<rect x="890" y="1085" width="50" height="120" stroke="black" stroke-width="5" stroke-linecap="round" stroke-linejoin="round"/>
<rect x="1390" y="1085" width="50" height="120" stroke="black" stroke-width="5" stroke-linecap="round" stroke-linejoin="round"/>
<rect x="990" y="1085" width="50" height="120" stroke="black" stroke-width="5" stroke-linecap="round" stroke-linejoin="round"/>
<rect x="1190" y="1085" width="50" height="120" stroke="black" stroke-width="5" stroke-linecap="round" stroke-linejoin="round"/>
<rect x="790" y="1085" width="50" height="120" stroke="black" stroke-width="5" stroke-linecap="round" stroke-linejoin="round"/>
<rect x="745" y="315" width="60" height="60" stroke="black" stroke-width="5" stroke-linecap="round" stroke-linejoin="round"/>
<rect x="785" y="275" width="20" height="40" stroke="black" stroke-width="5" stroke-linecap="round" stroke-linejoin="round"/>
<rect x="805" y="275" width="55" height="100" stroke="black" stroke-width="5" stroke-linecap="round" stroke-linejoin="round"/>
<rect x="395" y="275" width="55" height="100" stroke="black" stroke-width="5" stroke-linecap="round" stroke-linejoin="round"/>
<rect x="340" y="275" width="55" height="100" stroke="black" stroke-width="5" stroke-linecap="round" stroke-linejoin="round"/>
<rect x="450" y="275" width="120" height="100" stroke="black" stroke-width="5" stroke-linecap="round" stroke-linejoin="round"/>
<rect x="570" y="275" width="120" height="100" stroke="black" stroke-width="5" stroke-linecap="round" stroke-linejoin="round"/>
<rect x="1025" y="275" width="55" height="100" stroke="black" stroke-width="5" stroke-linecap="round" stroke-linejoin="round"/>
<rect x="915" y="275" width="55" height="100" stroke="black" stroke-width="5" stroke-linecap="round" stroke-linejoin="round"/>
<rect x="1135" y="275" width="55" height="100" stroke="black" stroke-width="5" stroke-linecap="round" stroke-linejoin="round"/>
<rect x="860" y="275" width="55" height="100" stroke="black" stroke-width="5" stroke-linecap="round" stroke-linejoin="round"/>
<rect x="1080" y="275" width="55" height="100" stroke="black" stroke-width="5" stroke-linecap="round" stroke-linejoin="round"/>
<rect x="970" y="275" width="55" height="100" stroke="black" stroke-width="5" stroke-linecap="round" stroke-linejoin="round"/>
<rect x="1190" y="275" width="55" height="100" stroke="black" stroke-width="5" stroke-linecap="round" stroke-linejoin="round"/>
<rect x="1245" y="275" width="55" height="100" stroke="black" stroke-width="5" stroke-linecap="round" stroke-linejoin="round"/>
<rect x="1300" y="275" width="165" height="100" stroke="black" stroke-width="5" stroke-linecap="round" stroke-linejoin="round"/>
<rect x="1300" y="100" width="165" height="130" stroke="black" stroke-width="5" stroke-linecap="round" stroke-linejoin="round"/>
<rect x="1245" y="100" width="55" height="130" stroke="black" stroke-width="5" stroke-linecap="round" stroke-linejoin="round"/>
<rect x="1080" y="100" width="165" height="130" stroke="black" stroke-width="5" stroke-linecap="round" stroke-linejoin="round"/>
<rect x="1025" y="100" width="55" height="130" stroke="black" stroke-width="5" stroke-linecap="round" stroke-linejoin="round"/>
<rect x="915" y="100" width="110" height="130" stroke="black" stroke-width="5" stroke-linecap="round" stroke-linejoin="round"/>
<rect x="745" y="100" width="170" height="130" stroke="black" stroke-width="5" stroke-linecap="round" stroke-linejoin="round"/>
<rect x="690" y="100" width="55" height="130" stroke="black" stroke-width="5" stroke-linecap="round" stroke-linejoin="round"/>
<rect x="515" y="100" width="55" height="130" stroke="black" stroke-width="5" stroke-linecap="round" stroke-linejoin="round"/>
<rect x="340" y="100" width="175" height="130" stroke="black" stroke-width="5" stroke-linecap="round" stroke-linejoin="round"/>
<rect x="170" y="100" width="170" height="275" stroke="black" stroke-width="5" stroke-linecap="round" stroke-linejoin="round"/>
<path d="M570 100L690 100" stroke="black" stroke-width="5" stroke-linecap="round" stroke-linejoin="round"/>
<rect x="1440" y="1085" width="50" height="120" stroke="black" stroke-width="5" stroke-linecap="round" stroke-linejoin="round"/>
<rect x="1040" y="1085" width="50" height="120" stroke="black" stroke-width="5" stroke-linecap="round" stroke-linejoin="round"/>
<rect x="1240" y="1085" width="50" height="120" stroke="black" stroke-width="5" stroke-linecap="round" stroke-linejoin="round"/>
<rect x="1465" y="920" width="75" height="120" stroke="black" stroke-width="5" stroke-linecap="round" stroke-linejoin="round"/>
<rect x="1685" y="920" width="60" height="120" stroke="black" stroke-width="5" stroke-linecap="round" stroke-linejoin="round"/>
<rect x="1745" y="920" width="200" height="120" stroke="black" stroke-width="5" stroke-linecap="round" stroke-linejoin="round"/>
<rect x="1745" y="1085" width="200" height="120" stroke="black" stroke-width="5" stroke-linecap="round" stroke-linejoin="round"/>
<rect x="1685" y="1085" width="60" height="120" stroke="black" stroke-width="5" stroke-linecap="round" stroke-linejoin="round"/>
<rect x="790" y="950" width="150" height="90" stroke="black" stroke-width="5" stroke-linecap="round" stroke-linejoin="round"/>
<rect x="745" y="740" width="160" height="60" stroke="black" stroke-width="5" stroke-linecap="round" stroke-linejoin="round"/>
<rect x="530" y="740" width="160" height="60" stroke="black" stroke-width="5" stroke-linecap="round" stroke-linejoin="round"/>
<rect x="745" y="575" width="160" height="225" stroke="black" stroke-width="5" stroke-linecap="round" stroke-linejoin="round"/>
<rect x="530" y="575" width="160" height="165" stroke="black" stroke-width="5" stroke-linecap="round" stroke-linejoin="round"/>
<rect x="610" y="950" width="80" height="90" stroke="black" stroke-width="5" stroke-linecap="round" stroke-linejoin="round"/>
<rect x="590" y="1205" width="80" height="75" stroke="black" stroke-width="5" stroke-linecap="round" stroke-linejoin="round"/>
<rect x="555" y="1280" width="115" height="130" stroke="black" stroke-width="5" stroke-linecap="round" stroke-linejoin="round"/>
<rect x="480" y="1205" width="75" height="205" stroke="black" stroke-width="5" stroke-linecap="round" stroke-linejoin="round"/>
<rect x="295" y="950" width="250" height="175" stroke="black" stroke-width="5" stroke-linecap="round" stroke-linejoin="round"/>
<rect x="480" y="1125" width="65" height="80" stroke="black" stroke-width="5" stroke-linecap="round" stroke-linejoin="round"/>
<rect x="610" y="1085" width="80" height="35" stroke="black" stroke-width="5" stroke-linecap="round" stroke-linejoin="round"/>
<rect x="610" y="1120" width="80" height="35" stroke="black" stroke-width="5" stroke-linecap="round" stroke-linejoin="round"/>
<path d="M690 1155V1205H670" stroke="black" stroke-width="5" stroke-linecap="round" stroke-linejoin="round"/>
<path d="M745 800V840" stroke="black" stroke-width="5" stroke-linecap="round" stroke-linejoin="round"/>
<path d="M745 275L745 325" stroke="black" stroke-width="5" stroke-linecap="round" stroke-linejoin="round"/>
<path d="M790 800V950" stroke="black" stroke-width="5" stroke-linecap="round" stroke-linejoin="round"/>
<path d="M690 375V575" stroke="black" stroke-width="5" stroke-linecap="round" stroke-linejoin="round"/>
<path d="M745 375V575" stroke="black" stroke-width="5" stroke-linecap="round" stroke-linejoin="round"/>
<path d="M675 800V950" stroke="black" stroke-width="5" stroke-linecap="round" stroke-linejoin="round"/>
<rect x="545" y="950" width="65" height="90" stroke="black" stroke-width="5" stroke-linecap="round" stroke-linejoin="round"/>
<rect x="940" y="950" width="150" height="90" stroke="black" stroke-width="5" stroke-linecap="round" stroke-linejoin="round"/>
<rect x="1090" y="920" width="150" height="120" stroke="black" stroke-width="5" stroke-linecap="round" stroke-linejoin="round"/>
<path d="M1240 920H1390V1040H1290V965H1240V920Z" stroke="black" stroke-width="5" stroke-linecap="round" stroke-linejoin="round"/>
<rect x="1240" y="965" width="50" height="50" stroke="black" stroke-width="5" stroke-linecap="round" stroke-linejoin="round"/>
<rect x="840" y="1085" width="50" height="120" stroke="black" stroke-width="5" stroke-linecap="round" stroke-linejoin="round"/>
<rect x="1340" y="1085" width="50" height="120" stroke="black" stroke-width="5" stroke-linecap="round" stroke-linejoin="round"/>
<rect x="940" y="1085" width="50" height="120" stroke="black" stroke-width="5" stroke-linecap="round" stroke-linejoin="round"/>
<rect x="1140" y="1085" width="50" height="120" stroke="black" stroke-width="5" stroke-linecap="round" stroke-linejoin="round"/>
<path d="M1540 1085H1685" stroke="black" stroke-width="5" stroke-linecap="round" stroke-linejoin="round"/>
<path d="M1540 1040H1685" stroke="black" stroke-width="5" stroke-linecap="round" stroke-linejoin="round"/>
<path d="M1390 920H1465" stroke="black" stroke-width="5" stroke-linecap="round" stroke-linejoin="round"/>
<path d="M690 1085H790" stroke="black" stroke-width="5" stroke-linecap="round" stroke-linejoin="round"/>
<path d="M1945 1040H1995V1085H1945" stroke="black" stroke-width="5" stroke-linecap="round" stroke-linejoin="round"/>
<path d="M1465 230H1520V275H1465" stroke="black" stroke-width="5" stroke-linecap="round" stroke-linejoin="round"/>
</svg>
