<svg width="1700" height="475" viewBox="0 0 1700 475" fill="none" xmlns="http://www.w3.org/2000/svg">
<rect x="745" y="315" width="60" height="60" stroke="black" stroke-width="5" stroke-linecap="round" stroke-linejoin="round"/>
<rect x="785" y="275" width="20" height="40" stroke="black" stroke-width="5" stroke-linecap="round" stroke-linejoin="round"/>
<rect x="570" y="275" width="20" height="40" stroke="black" stroke-width="5" stroke-linecap="round" stroke-linejoin="round"/>
<rect x="805" y="275" width="110" height="100" stroke="black" stroke-width="5" stroke-linecap="round" stroke-linejoin="round"/>
<rect x="690" y="275" width="55" height="100" stroke="black" stroke-width="5" stroke-linecap="round" stroke-linejoin="round"/>
<rect x="460" y="275" width="110" height="100" stroke="black" stroke-width="5" stroke-linecap="round" stroke-linejoin="round"/>
<path d="M620 275H690V375H570V315H620V275Z" stroke="black" stroke-width="5" stroke-linecap="round" stroke-linejoin="round"/>
<rect x="1190" y="275" width="55" height="100" stroke="black" stroke-width="5" stroke-linecap="round" stroke-linejoin="round"/>
<rect x="915" y="275" width="55" height="100" stroke="black" stroke-width="5" stroke-linecap="round" stroke-linejoin="round"/>
<rect x="1300" y="275" width="55" height="100" stroke="black" stroke-width="5" stroke-linecap="round" stroke-linejoin="round"/>
<rect x="1245" y="275" width="55" height="100" stroke="black" stroke-width="5" stroke-linecap="round" stroke-linejoin="round"/>
<rect x="1025" y="275" width="55" height="100" stroke="black" stroke-width="5" stroke-linecap="round" stroke-linejoin="round"/>
<rect x="970" y="275" width="55" height="100" stroke="black" stroke-width="5" stroke-linecap="round" stroke-linejoin="round"/>
<rect x="1355" y="275" width="55" height="100" stroke="black" stroke-width="5" stroke-linecap="round" stroke-linejoin="round"/>
<rect x="1410" y="275" width="55" height="100" stroke="black" stroke-width="5" stroke-linecap="round" stroke-linejoin="round"/>
<rect x="1080" y="275" width="110" height="100" stroke="black" stroke-width="5" stroke-linecap="round" stroke-linejoin="round"/>
<rect x="1300" y="100" width="165" height="130" stroke="black" stroke-width="5" stroke-linecap="round" stroke-linejoin="round"/>
<rect x="1245" y="100" width="55" height="130" stroke="black" stroke-width="5" stroke-linecap="round" stroke-linejoin="round"/>
<rect x="1080" y="100" width="165" height="130" stroke="black" stroke-width="5" stroke-linecap="round" stroke-linejoin="round"/>
<rect x="998" y="100" width="82" height="130" stroke="black" stroke-width="5" stroke-linecap="round" stroke-linejoin="round"/>
<rect x="915" y="100" width="83" height="130" stroke="black" stroke-width="5" stroke-linecap="round" stroke-linejoin="round"/>
<rect x="745" y="100" width="170" height="130" stroke="black" stroke-width="5" stroke-linecap="round" stroke-linejoin="round"/>
<rect x="690" y="100" width="55" height="130" stroke="black" stroke-width="5" stroke-linecap="round" stroke-linejoin="round"/>
<rect x="515" y="100" width="55" height="130" stroke="black" stroke-width="5" stroke-linecap="round" stroke-linejoin="round"/>
<rect x="170" y="100" width="345" height="130" stroke="black" stroke-width="5" stroke-linecap="round" stroke-linejoin="round"/>
<rect x="170" y="230" width="290" height="145" stroke="black" stroke-width="5" stroke-linecap="round" stroke-linejoin="round"/>
<path d="M570 100L690 100" stroke="black" stroke-width="5" stroke-linecap="round" stroke-linejoin="round"/>
<path d="M1465 230H1520V275H1465" stroke="black" stroke-width="5" stroke-linecap="round" stroke-linejoin="round"/>
</svg>
